<?xml version="1.0" encoding="utf-8"?>
<!-- Generator: Adobe Illustrator 24.0.0, SVG Export Plug-In . SVG Version: 6.00 Build 0)  -->
<svg version="1.1" id="Layer_1" xmlns="http://www.w3.org/2000/svg" xmlns:xlink="http://www.w3.org/1999/xlink" x="0px" y="0px"
	 viewBox="0 0 120 40" style="enable-background:new 0 0 120 40;" xml:space="preserve">
<style type="text/css">
	.st0{fill:url(#SVGID_1_);}
	.st1{fill:url(#SVGID_2_);}
	.st2{fill:url(#SVGID_3_);}
	.st3{fill:url(#SVGID_4_);}
	.st4{fill:url(#SVGID_5_);}
	.st5{fill:url(#SVGID_6_);}
	.st6{fill:url(#SVGID_7_);}
	.st7{fill:none;stroke:url(#SVGID_8_);stroke-width:4;stroke-miterlimit:10;}
	.st8{fill:url(#SVGID_9_);}
</style>
<g>
	<linearGradient id="SVGID_1_" gradientUnits="userSpaceOnUse" x1="8.1472" y1="19.8799" x2="24.3464" y2="19.8799">
		<stop  offset="0" style="stop-color:#B7F9C0"/>
		<stop  offset="1" style="stop-color:#009FE3"/>
	</linearGradient>
	<path class="st0" d="M16.55,9.22c2.3,0,4.01,0.44,5.13,1.3c1.12,0.87,1.68,2.22,1.68,4.03v0.36c0,0.5-0.06,0.98-0.18,1.44
		c-0.12,0.46-0.31,0.88-0.59,1.28c-0.27,0.39-0.62,0.73-1.05,1.02c-0.43,0.29-0.96,0.51-1.6,0.67c0.66,0.1,1.26,0.27,1.8,0.51
		c0.54,0.24,1,0.57,1.39,0.98c0.39,0.41,0.69,0.9,0.9,1.47c0.21,0.57,0.31,1.25,0.31,2.02v0.48c0,1.82-0.56,3.24-1.68,4.24
		s-2.85,1.51-5.19,1.51H10.7c-0.96,0-1.63-0.18-1.99-0.54c-0.37-0.36-0.56-1.01-0.56-1.95V11.7c0-0.94,0.18-1.59,0.56-1.95
		c0.37-0.36,1.03-0.54,1.99-0.54H16.55z M11.96,17.88h3.12c0.88,0,1.6-0.04,2.17-0.13c0.57-0.09,1.02-0.24,1.35-0.47
		c0.33-0.22,0.56-0.51,0.68-0.87c0.12-0.36,0.18-0.82,0.18-1.38v-0.27c0-0.96-0.36-1.59-1.06-1.9c-0.71-0.31-1.87-0.47-3.5-0.47
		h-2.94V17.88z M11.96,27.36h3.48c0.84,0,1.57-0.03,2.21-0.09c0.63-0.06,1.15-0.19,1.56-0.41c0.41-0.21,0.71-0.51,0.91-0.91
		c0.2-0.4,0.3-0.93,0.3-1.59v-0.39c0-0.5-0.08-0.94-0.24-1.32c-0.16-0.38-0.44-0.69-0.84-0.93c-0.4-0.24-0.94-0.42-1.62-0.54
		C17.04,21.06,16.19,21,15.17,21h-3.21V27.36z"/>
	<linearGradient id="SVGID_2_" gradientUnits="userSpaceOnUse" x1="26.6857" y1="19.9546" x2="37.2454" y2="19.9546">
		<stop  offset="0" style="stop-color:#B7F9C0"/>
		<stop  offset="1" style="stop-color:#009FE3"/>
	</linearGradient>
	<path class="st1" d="M35.96,18.36c0.44,0,0.77,0.16,0.97,0.47c0.21,0.31,0.31,0.69,0.31,1.12c0,0.44-0.1,0.82-0.31,1.12
		c-0.21,0.31-0.54,0.47-0.97,0.47h-7.98c-0.44,0-0.77-0.15-0.97-0.47c-0.21-0.31-0.32-0.68-0.32-1.12c0-0.44,0.11-0.81,0.32-1.12
		c0.21-0.31,0.53-0.47,0.97-0.47H35.96z"/>
	<linearGradient id="SVGID_3_" gradientUnits="userSpaceOnUse" x1="38.8655" y1="20.4947" x2="50.104" y2="20.4947">
		<stop  offset="0" style="stop-color:#B7F9C0"/>
		<stop  offset="1" style="stop-color:#009FE3"/>
	</linearGradient>
	<path class="st2" d="M43.58,10.2c0.5,0,0.94,0.13,1.32,0.39c0.38,0.26,0.57,0.67,0.57,1.23v2.79h3.15c0.46,0,0.8,0.16,1.01,0.47
		c0.21,0.31,0.31,0.68,0.31,1.09c0,0.42-0.11,0.79-0.31,1.09c-0.21,0.31-0.55,0.47-1.01,0.47h-3.15v7.92c0,1.28,0.49,1.92,1.47,1.92
		c0.46,0,0.92-0.08,1.38-0.24c0.32-0.1,0.64-0.08,0.96,0.06c0.32,0.14,0.56,0.45,0.72,0.93c0.14,0.42,0.14,0.81,0.01,1.17
		c-0.13,0.36-0.39,0.62-0.76,0.78c-0.36,0.16-0.77,0.28-1.23,0.37c-0.46,0.09-0.93,0.13-1.41,0.13c-1.78,0-3.04-0.45-3.79-1.33
		c-0.75-0.89-1.12-2.21-1.12-3.98v-7.74h-1.5c-0.46,0-0.8-0.15-1.01-0.47c-0.21-0.31-0.31-0.67-0.31-1.09
		c0-0.42,0.11-0.78,0.31-1.09c0.21-0.31,0.54-0.47,1.01-0.47h1.5v-2.79c0-0.56,0.19-0.97,0.57-1.23
		C42.64,10.34,43.08,10.2,43.58,10.2z"/>
	<linearGradient id="SVGID_4_" gradientUnits="userSpaceOnUse" x1="52.1549" y1="22.5198" x2="65.9255" y2="22.5198">
		<stop  offset="0" style="stop-color:#B7F9C0"/>
		<stop  offset="1" style="stop-color:#009FE3"/>
	</linearGradient>
	<path class="st3" d="M59.27,14.26c0.96,0,1.85,0.12,2.67,0.36c0.82,0.24,1.52,0.59,2.12,1.04c0.59,0.45,1.05,1,1.38,1.65
		c0.33,0.65,0.5,1.4,0.5,2.24v9.75c0,0.5-0.18,0.87-0.53,1.09c-0.35,0.23-0.75,0.35-1.19,0.35s-0.83-0.11-1.19-0.35
		c-0.35-0.23-0.53-0.59-0.53-1.09V28.5h-0.03c-0.16,0.34-0.39,0.64-0.69,0.9c-0.3,0.26-0.66,0.5-1.08,0.72
		c-0.4,0.2-0.86,0.36-1.38,0.48c-0.52,0.12-1.04,0.18-1.56,0.18c-1.8,0-3.19-0.41-4.15-1.23c-0.97-0.82-1.46-1.98-1.46-3.48v-0.48
		c0-0.68,0.11-1.31,0.31-1.89c0.21-0.58,0.56-1.09,1.05-1.51c0.49-0.43,1.13-0.77,1.92-1.01c0.79-0.24,1.77-0.36,2.96-0.36h3.78
		v-0.42c0-1.02-0.24-1.75-0.71-2.21c-0.47-0.45-1.22-0.67-2.24-0.67c-1.36,0-2.64,0.36-3.84,1.08c-0.4,0.24-0.8,0.31-1.19,0.19
		c-0.39-0.11-0.71-0.36-0.94-0.76c-0.22-0.38-0.31-0.77-0.25-1.19c0.05-0.41,0.27-0.74,0.67-1c0.72-0.48,1.56-0.86,2.53-1.15
		C57.19,14.4,58.2,14.26,59.27,14.26z M58.48,23.73c-1,0-1.69,0.19-2.08,0.57c-0.39,0.38-0.59,0.89-0.59,1.53v0.06
		c0,1.16,0.75,1.74,2.25,1.74c1.18,0,2.11-0.2,2.79-0.6c0.48-0.28,0.83-0.61,1.04-0.99c0.21-0.38,0.31-0.89,0.31-1.53v-0.78H58.48z"
		/>
	<linearGradient id="SVGID_5_" gradientUnits="userSpaceOnUse" x1="69.0401" y1="22.5198" x2="82.3049" y2="22.5198">
		<stop  offset="0" style="stop-color:#B7F9C0"/>
		<stop  offset="1" style="stop-color:#009FE3"/>
	</linearGradient>
	<path class="st4" d="M75.8,14.26c1.98,0,3.54,0.31,4.68,0.93c0.5,0.28,0.81,0.61,0.93,0.99c0.12,0.38,0.07,0.8-0.15,1.26
		c-0.18,0.38-0.44,0.63-0.78,0.76c-0.34,0.13-0.73,0.1-1.17-0.1c-0.46-0.22-0.97-0.39-1.51-0.51c-0.55-0.12-1.08-0.18-1.58-0.18
		c-1.14,0-1.93,0.14-2.37,0.42c-0.44,0.28-0.66,0.61-0.66,0.99v0.06c0,0.24,0.03,0.45,0.09,0.61c0.06,0.17,0.19,0.32,0.41,0.45
		c0.21,0.13,0.51,0.25,0.91,0.36c0.4,0.11,0.95,0.24,1.65,0.37c1.2,0.24,2.19,0.51,2.97,0.8c0.78,0.29,1.4,0.63,1.86,1.03
		c0.46,0.4,0.78,0.88,0.96,1.43c0.18,0.55,0.27,1.21,0.27,1.97v0.12c0,0.68-0.16,1.31-0.47,1.89c-0.31,0.58-0.75,1.09-1.32,1.51
		c-0.57,0.43-1.26,0.76-2.07,1c-0.81,0.24-1.72,0.36-2.72,0.36c-1.18,0-2.27-0.12-3.27-0.36c-1-0.24-1.88-0.57-2.64-0.99
		c-0.42-0.22-0.67-0.54-0.75-0.97c-0.08-0.43-0.02-0.85,0.18-1.25c0.22-0.42,0.52-0.7,0.9-0.84c0.38-0.14,0.79-0.1,1.23,0.12
		c0.64,0.34,1.34,0.61,2.09,0.81c0.75,0.2,1.49,0.3,2.24,0.3c1.04,0,1.76-0.15,2.16-0.45c0.4-0.3,0.6-0.68,0.6-1.14v-0.06
		c0-0.24-0.03-0.45-0.09-0.63c-0.06-0.18-0.21-0.34-0.45-0.48c-0.24-0.14-0.59-0.27-1.05-0.39c-0.46-0.12-1.08-0.26-1.86-0.42
		c-1.06-0.2-1.95-0.44-2.66-0.72c-0.71-0.28-1.28-0.62-1.73-1.03c-0.44-0.41-0.75-0.89-0.94-1.44c-0.19-0.55-0.29-1.19-0.29-1.9
		v-0.12c0-0.6,0.13-1.17,0.39-1.72c0.26-0.55,0.65-1.04,1.18-1.46s1.2-0.75,2-1C73.77,14.38,74.71,14.26,75.8,14.26z"/>
	<linearGradient id="SVGID_6_" gradientUnits="userSpaceOnUse" x1="83.8034" y1="20.4947" x2="95.0414" y2="20.4947">
		<stop  offset="0" style="stop-color:#B7F9C0"/>
		<stop  offset="1" style="stop-color:#009FE3"/>
	</linearGradient>
	<path class="st5" d="M88.51,10.2c0.5,0,0.94,0.13,1.32,0.39c0.38,0.26,0.57,0.67,0.57,1.23v2.79h3.15c0.46,0,0.79,0.16,1,0.47
		c0.21,0.31,0.31,0.68,0.31,1.09c0,0.42-0.11,0.79-0.31,1.09c-0.21,0.31-0.54,0.47-1,0.47H90.4v7.92c0,1.28,0.49,1.92,1.47,1.92
		c0.46,0,0.92-0.08,1.38-0.24c0.32-0.1,0.64-0.08,0.96,0.06c0.32,0.14,0.56,0.45,0.72,0.93c0.14,0.42,0.15,0.81,0.01,1.17
		c-0.13,0.36-0.39,0.62-0.76,0.78c-0.36,0.16-0.77,0.28-1.23,0.37c-0.46,0.09-0.93,0.13-1.41,0.13c-1.78,0-3.05-0.45-3.8-1.33
		c-0.75-0.89-1.12-2.21-1.12-3.98v-7.74h-1.5c-0.46,0-0.8-0.15-1-0.47c-0.21-0.31-0.31-0.67-0.31-1.09c0-0.42,0.1-0.78,0.31-1.09
		c0.21-0.31,0.54-0.47,1-0.47h1.5v-2.79c0-0.56,0.19-0.97,0.57-1.23C87.57,10.34,88.01,10.2,88.51,10.2z"/>
	<linearGradient id="SVGID_7_" gradientUnits="userSpaceOnUse" x1="97.0935" y1="22.5198" x2="111.8528" y2="22.5198">
		<stop  offset="0" style="stop-color:#B7F9C0"/>
		<stop  offset="1" style="stop-color:#009FE3"/>
	</linearGradient>
	<path class="st6" d="M104.62,14.26c1.08,0,2.06,0.16,2.94,0.48c0.88,0.32,1.64,0.78,2.28,1.38c0.64,0.6,1.14,1.34,1.49,2.22
		c0.35,0.88,0.52,1.89,0.52,3.03v0.06c0,0.94-0.18,1.59-0.56,1.95c-0.37,0.36-1.03,0.54-2,0.54h-8.52v0.06c0,1.08,0.34,1.96,1,2.64
		c0.67,0.68,1.68,1.02,3.01,1.02c0.84,0,1.58-0.07,2.21-0.2c0.63-0.13,1.27-0.34,1.94-0.64c0.4-0.18,0.79-0.21,1.17-0.07
		c0.38,0.13,0.66,0.4,0.84,0.82c0.18,0.42,0.22,0.82,0.12,1.22c-0.1,0.39-0.35,0.68-0.75,0.88c-0.76,0.38-1.59,0.67-2.49,0.85
		c-0.9,0.19-1.96,0.29-3.18,0.29c-2.4,0-4.26-0.65-5.58-1.97c-1.32-1.31-1.98-3.27-1.98-5.89v-0.78c0-2.6,0.67-4.56,2.01-5.89
		C100.44,14.92,102.28,14.26,104.62,14.26z M104.56,17.38c-1.26,0-2.21,0.33-2.84,0.99c-0.63,0.66-0.94,1.5-0.94,2.52v0.21h7.44
		v-0.3c0-0.98-0.28-1.79-0.84-2.44C106.82,17.7,105.88,17.38,104.56,17.38z"/>
</g>
<linearGradient id="SVGID_8_" gradientUnits="userSpaceOnUse" x1="110.366" y1="84.6959" x2="141.2511" y2="84.6959">
	<stop  offset="0" style="stop-color:#B7F9C0"/>
	<stop  offset="1" style="stop-color:#009FE3"/>
</linearGradient>
<path class="st7" d="M139.25,81.17c0,5.86-8.38,11.98-11.91,14.29c-0.93,0.61-2.13,0.61-3.07,0c-3.53-2.31-11.91-8.43-11.91-14.29
	c0-6.96,8.81-10.84,12.73-3.71c0.33,0.59,1.17,0.62,1.53,0.05C131.35,69.89,139.25,74.17,139.25,81.17z"/>
<linearGradient id="SVGID_9_" gradientUnits="userSpaceOnUse" x1="76.366" y1="95.6959" x2="103.2511" y2="95.6959">
	<stop  offset="0" style="stop-color:#B7F9C0"/>
	<stop  offset="1" style="stop-color:#009FE3"/>
</linearGradient>
<path class="st8" d="M103.25,92.17c0,5.86-8.38,11.98-11.91,14.29c-0.93,0.61-2.13,0.61-3.07,0c-3.53-2.31-11.91-8.43-11.91-14.29
	c0-6.96,8.81-10.84,12.73-3.71c0.33,0.59,1.17,0.62,1.53,0.05C95.35,80.89,103.25,85.17,103.25,92.17z"/>
</svg>
