<?xml version="1.0" encoding="utf-8"?>
<!-- Generator: Adobe Illustrator 24.0.0, SVG Export Plug-In . SVG Version: 6.00 Build 0)  -->
<svg version="1.1" id="Layer_1" xmlns="http://www.w3.org/2000/svg" xmlns:xlink="http://www.w3.org/1999/xlink" x="0px" y="0px"
	 viewBox="0 0 40 40" style="enable-background:new 0 0 40 40;" xml:space="preserve">
<style type="text/css">
	.st0{fill:#B3B3B3;}
</style>
<g>
	<path class="st0" d="M111.62,68.25l13.66-8.98c0.9-0.58,1.69-0.22,2.09,0.8c0.36,0.98,0.29,2.1-0.58,2.68L114,70.84v0.22
		l12.79,8.18c0.86,0.54,0.94,1.65,0.58,2.68c-0.4,1.03-1.19,1.39-2.13,0.8l-13.62-8.98c-1.41-0.94-1.66-1.56-1.66-2.73
		C109.96,69.82,110.22,69.19,111.62,68.25z"/>
</g>
<g id="Announcement">
	<path class="st0" d="M78.97,10.32c-0.19,0-0.38,0.04-0.59,0.12l-4.44,1.7c-0.33-0.27-0.69-0.49-1.06-0.62L52.53,4.15
		c-0.3-0.11-0.59-0.16-0.85-0.16c-1.05,0-1.81,0.79-1.81,2.03v20.06c0,1.23,0.74,2,1.77,2c0.28,0,0.57-0.06,0.88-0.17l12.98-4.94
		c0.11,0.32,0.28,0.69,0.52,1.08c0.6,0.98,1.87,2.02,3.78,2.02c0.02,0,0.04,0,0.05,0c0.05,0,0.1-0.01,0.16-0.01
		c0.02,0.07,0.04,0.14,0.07,0.2l2.89,5.37c0.28,0.44,0.83,0.5,1.21,0.15l3.45-3.2c0.38-0.35,0.46-1,0.17-1.43l-1.32-2.54
		c-0.17-0.49-0.38-1.31-0.47-1.83l-0.31-2.19c-0.01-0.39-0.02-1-0.02-1.33l2.7,1.04c0.21,0.08,0.41,0.12,0.59,0.12
		c0.68,0,1.17-0.51,1.17-1.33v-7.44C80.14,10.83,79.65,10.32,78.97,10.32z M52.7,7.23l19.21,6.96c0.09,0.03,0.19,0.11,0.29,0.2
		c-0.02,0.11-0.03,0.22-0.03,0.33v1.31c0,0.33,0.09,0.67,0.23,1c-0.16,0.22-0.35,0.4-0.52,0.47L52.7,24.8V7.23z M67.61,23.03
		c-0.16-0.26-0.27-0.52-0.35-0.74l1.96-0.75l0.35,2.61C68.48,24.07,67.99,23.58,67.61,23.03z"/>
	<g>
		<path class="st0" d="M32.5,10.5h-25C6.12,10.5,5,9.38,5,8v0c0-1.37,1.12-2.5,2.5-2.5h25C33.88,5.5,35,6.62,35,8v0
			C35,9.38,33.88,10.5,32.5,10.5z"/>
		<path class="st0" d="M32.5,22.5h-25C6.12,22.5,5,21.38,5,20v0c0-1.38,1.12-2.5,2.5-2.5h25c1.37,0,2.5,1.12,2.5,2.5v0
			C35,21.38,33.88,22.5,32.5,22.5z"/>
		<path class="st0" d="M32.5,34.5h-25C6.12,34.5,5,33.38,5,32v0c0-1.38,1.12-2.5,2.5-2.5h25c1.37,0,2.5,1.12,2.5,2.5v0
			C35,33.38,33.88,34.5,32.5,34.5z"/>
	</g>
</g>
</svg>
