<?xml version="1.0" encoding="utf-8"?>
<!-- Generator: Adobe Illustrator 24.0.0, SVG Export Plug-In . SVG Version: 6.00 Build 0)  -->
<svg version="1.1" id="Layer_1" xmlns="http://www.w3.org/2000/svg" xmlns:xlink="http://www.w3.org/1999/xlink" x="0px" y="0px"
	 viewBox="0 0 40 40" style="enable-background:new 0 0 40 40;" xml:space="preserve">
<style type="text/css">
	.st0{fill:#B3B3B3;}
	.st1{fill:none;stroke:url(#SVGID_1_);stroke-width:4;stroke-miterlimit:10;}
	.st2{fill:#1A1A1A;}
</style>
<g>
	<path class="st0" d="M111.62,68.25l13.66-8.98c0.9-0.58,1.69-0.22,2.09,0.8c0.36,0.98,0.29,2.1-0.58,2.68L114,70.84v0.22
		l12.79,8.18c0.86,0.54,0.94,1.65,0.58,2.68c-0.4,1.03-1.19,1.39-2.13,0.8l-13.62-8.98c-1.41-0.94-1.66-1.56-1.66-2.73
		C109.96,69.82,110.22,69.19,111.62,68.25z"/>
</g>
<g id="Announcement">
	<path class="st0" d="M78.97,10.32c-0.19,0-0.38,0.04-0.59,0.12l-4.44,1.7c-0.33-0.27-0.69-0.49-1.06-0.62L52.53,4.15
		c-0.3-0.11-0.59-0.16-0.85-0.16c-1.05,0-1.81,0.79-1.81,2.03v20.06c0,1.23,0.74,2,1.77,2c0.28,0,0.57-0.06,0.88-0.17l12.98-4.94
		c0.11,0.32,0.28,0.69,0.52,1.08c0.6,0.98,1.87,2.02,3.78,2.02c0.02,0,0.04,0,0.05,0c0.05,0,0.1-0.01,0.16-0.01
		c0.02,0.07,0.04,0.14,0.07,0.2l2.89,5.37c0.28,0.44,0.83,0.5,1.21,0.15l3.45-3.2c0.38-0.35,0.46-1,0.17-1.43l-1.32-2.54
		c-0.17-0.49-0.38-1.31-0.47-1.83l-0.31-2.19c-0.01-0.39-0.02-1-0.02-1.33l2.7,1.04c0.21,0.08,0.41,0.12,0.59,0.12
		c0.68,0,1.17-0.51,1.17-1.33v-7.44C80.14,10.83,79.65,10.32,78.97,10.32z M52.7,7.23l19.21,6.96c0.09,0.03,0.19,0.11,0.29,0.2
		c-0.02,0.11-0.03,0.22-0.03,0.33v1.31c0,0.33,0.09,0.67,0.23,1c-0.16,0.22-0.35,0.4-0.52,0.47L52.7,24.8V7.23z M67.61,23.03
		c-0.16-0.26-0.27-0.52-0.35-0.74l1.96-0.75l0.35,2.61C68.48,24.07,67.99,23.58,67.61,23.03z"/>
	<g>
		<path class="st0" d="M112.5-31h-25c-1.38,0-2.5-1.13-2.5-2.5v0c0-1.37,1.13-2.5,2.5-2.5h25c1.38,0,2.5,1.13,2.5,2.5v0
			C115-32.13,113.88-31,112.5-31z"/>
		<path class="st0" d="M112.5-19h-25c-1.38,0-2.5-1.12-2.5-2.5v0c0-1.38,1.13-2.5,2.5-2.5h25c1.38,0,2.5,1.12,2.5,2.5v0
			C115-20.12,113.88-19,112.5-19z"/>
		<path class="st0" d="M112.5-7h-25C86.13-7,85-8.12,85-9.5v0c0-1.37,1.13-2.5,2.5-2.5h25c1.38,0,2.5,1.12,2.5,2.5v0
			C115-8.12,113.88-7,112.5-7z"/>
	</g>
	<linearGradient id="SVGID_1_" gradientUnits="userSpaceOnUse" x1="58.5574" y1="74" x2="89.4426" y2="74">
		<stop  offset="0" style="stop-color:#B7F9C0"/>
		<stop  offset="1" style="stop-color:#009FE3"/>
	</linearGradient>
	<path class="st1" d="M87.44,70.47c0,5.86-8.38,11.98-11.91,14.29c-0.93,0.61-2.13,0.61-3.07,0c-3.53-2.31-11.91-8.43-11.91-14.29
		c0-6.96,8.81-10.84,12.73-3.71c0.33,0.59,1.17,0.62,1.53,0.05C79.54,59.2,87.44,63.47,87.44,70.47z"/>
	<g>
		<path class="st2" d="M28,20.02c0,1.06-0.23,1.62-1.51,2.48l-12.38,8.16c-0.85,0.53-1.57,0.2-1.93-0.73
			c-0.33-0.93-0.26-1.95,0.52-2.43l11.62-7.43v-0.2l-11.62-7.35c-0.79-0.53-0.85-1.54-0.52-2.43c0.36-0.93,1.08-1.26,1.9-0.73
			l12.41,8.16C27.77,18.36,28,18.92,28,20.02z"/>
	</g>
</g>
</svg>
